<?xml version="1.0" encoding="utf-8"?>
<!-- Generator: Adobe Illustrator 16.0.0, SVG Export Plug-In . SVG Version: 6.00 Build 0)  -->
<!DOCTYPE svg PUBLIC "-//W3C//DTD SVG 1.1//EN" "http://www.w3.org/Graphics/SVG/1.1/DTD/svg11.dtd">
<svg version="1.1" id="Layer_1" xmlns="http://www.w3.org/2000/svg" xmlns:xlink="http://www.w3.org/1999/xlink" x="0px" y="0px"
	 width="511.952px" height="512px" viewBox="-236.639 237.69 511.952 512" enable-background="new -236.639 237.69 511.952 512"
	 xml:space="preserve">
<title>link</title>
<g id="Expanded">
	<g>
		<g>
			<path d="M-119.041,749.69c-26.144,0-50.717-10.198-69.203-28.67l-19.782-19.768c-38.151-38.145-38.151-100.234,0-138.378
				l128.507-128.508c18.478-18.478,43.052-28.669,69.195-28.669c26.144,0,50.718,10.191,69.189,28.669l19.768,19.769
				c5.461,5.468,5.461,14.301,0,19.769c-5.474,5.468-14.307,5.468-19.768,0l-19.769-19.769
				C25.91,440.941,8.34,433.658-10.323,433.658c-18.676,0-36.232,7.283-49.434,20.478l-128.5,128.493
				c-27.243,27.236-27.243,71.578,0,98.855l19.769,19.769c13.194,13.188,30.758,20.478,49.434,20.478
				c18.663,0,36.219-7.29,49.414-20.478l88.984-88.985c5.475-5.46,14.308-5.46,19.769,0c5.461,5.475,5.461,14.309,0,19.769
				l-88.971,88.984C-68.324,739.506-92.897,749.69-119.041,749.69z"/>
		</g>
		<g>
			<path d="M48.995,581.633c-26.13,0-50.717-10.185-69.188-28.67c-5.468-5.46-5.468-14.307,0-19.768s14.301-5.461,19.768,0
				c13.202,13.188,30.758,20.479,49.42,20.479c18.676,0,36.233-7.291,49.435-20.479l128.507-128.508
				c27.236-27.242,27.236-71.584,0-98.834l-19.768-19.796c-27.25-27.242-71.592-27.242-98.842,0l-88.984,88.985
				c-5.474,5.467-14.3,5.467-19.768,0c-5.467-5.469-5.467-14.301,0-19.769l88.971-88.971c38.157-38.151,100.233-38.151,138.391,0
				l19.768,19.781c38.144,38.151,38.144,100.241,0,138.371L118.185,552.963C99.727,571.448,75.139,581.633,48.995,581.633z"/>
		</g>
	</g>
</g>
</svg>
