<svg xmlns="http://www.w3.org/2000/svg" width="546.13" height="512" viewBox="0 0 546.13 512">
  <title>camera</title>
  <path d="M273.07,196.27c50,0,90.63,42.1,90.63,93.87S323.07,384,273.07,384s-90.67-42.1-90.67-93.87,40.63-93.87,90.67-93.87M512,68.27H409.6L392.33,24.82C388.9,11.17,374.6,0,360.53,0H185.6c-14.1,0-28.4,11.17-31.83,24.82L136.53,68.27H34.13A34.22,34.22,0,0,0,0,102.4V477.87A34.22,34.22,0,0,0,34.13,512H512a34.24,34.24,0,0,0,34.13-34.13V102.4A34.24,34.24,0,0,0,512,68.27M273.07,435.2c-78.23,0-141.9-65.08-141.9-145.07s63.63-145.07,141.9-145.07,141.87,65.07,141.87,145.07S351.3,435.2,273.07,435.2"/>
</svg>
