<?xml version="1.0" encoding="utf-8"?>
<!-- Generator: Adobe Illustrator 16.0.0, SVG Export Plug-In . SVG Version: 6.00 Build 0)  -->
<!DOCTYPE svg PUBLIC "-//W3C//DTD SVG 1.1//EN" "http://www.w3.org/Graphics/SVG/1.1/DTD/svg11.dtd">
<svg version="1.1" id="Layer_1" xmlns="http://www.w3.org/2000/svg" xmlns:xlink="http://www.w3.org/1999/xlink" x="0px" y="0px"
	 width="511.983px" height="512px" viewBox="-241.942 240.496 511.983 512" enable-background="new -241.942 240.496 511.983 512"
	 xml:space="preserve">
<title>arrow_double</title>
<path d="M48.178,240.496c-9.4,0-17.058,7.658-17.058,17.067c0,9.408,7.658,17.066,17.058,17.066h163.597L-207.809,694.23V530.633
	c0-9.417-7.658-17.075-17.066-17.075s-17.066,7.658-17.066,17.075v221.863h221.863c9.408,0,17.066-7.667,17.066-17.066
	c0-9.417-7.658-17.066-17.066-17.066h-163.598l419.585-419.602v163.597c0,9.408,7.667,17.066,17.066,17.066
	c9.416,0,17.066-7.658,17.066-17.066V240.496H48.178z"/>
</svg>
