<svg xmlns="http://www.w3.org/2000/svg" width="326.94" height="512" viewBox="0 0 326.94 512">
  <title>coffee</title>
  <g>
    <path d="M248.69,282.88V254.75a17.27,17.27,0,0,0-17.23-17.27H17.27A17.29,17.29,0,0,0,0,254.75V460.27A51.7,51.7,0,0,0,51.67,512H196.91a51.69,51.69,0,0,0,51.68-51.7V446.57a81.92,81.92,0,0,0,.09-163.68Zm0,135.11V311.36a53.44,53.44,0,0,1,0,106.64Z"/>
    <path d="M75.71,181.34c3.84,12.34,4.61,27.41-5.39,37.27,5.14.27,10.23-1.84,14.32-5.14A35.93,35.93,0,0,0,94,201.15c7.73-15.36,7.73-33.73,1.18-49.46-5-12.09-15.5-21.16-19.43-33.5a47.6,47.6,0,0,1,2.89-36c1.73-3.16,4-6.41,7.09-8.39,3.43-2.11,6.57-.8,9.73-1.84a1.85,1.85,0,0,0-.54-1.32,8.74,8.74,0,0,0-2-2.23c-6.18-5.66-15.75-4.07-22.59-.66-27.79,14.43-31.36,51.84-17.18,77C60.37,157.7,71.23,167,75.71,181.34Z"/>
    <path d="M130.64,106.13a56.17,56.17,0,0,1,6,32.66c-.23,2.52-3.14,15.77-7,15.39h.5a8.4,8.4,0,0,0,1.7,0c10.91-.8,18.75-11,22.7-20.36,6.7-15.75,6.43-34.77-1.68-49.84-4.23-7.64-9.45-14.59-13.82-22.2-8.14-14.57-8.77-30-.75-44.75,2.86-5.27,8-10.64,14.57-9.07a3.66,3.66,0,0,0,1.68.27A7.67,7.67,0,0,0,152,4.29c-9.43-8.66-23.36-2.75-31.09,4.86a59.91,59.91,0,0,0-16.43,30.43c-3.25,17.34,1.89,31.5,12,45.57C121.55,92,126.68,98.65,130.64,106.13Z"/>
    <path d="M202.55,181.47c1.82,7.73,2.75,16.41,1,24.14a21.87,21.87,0,0,1-6.57,12c7.07.41,13.48-3.68,18.07-8.82,6.73-7.73,10.41-18,11.32-28a64.48,64.48,0,0,0-7-35.32c-4.84-9.46-13.11-17-16.91-27s-2.77-20.73.09-31c1.34-4.62,3.41-9,6.86-12.23s8.5-4.86,13-3.41c-2.07-4.59-7.09-7.5-12-7.86-17.61-1.54-32,17.09-36.41,32a59.32,59.32,0,0,0,5.48,46.59C187.18,156,198.73,166,202.55,181.47Z"/>
  </g>
</svg>
