<svg xmlns="http://www.w3.org/2000/svg" width="512.01" height="512" viewBox="0 0 512.01 512">
  <title>link</title>
  <path d="M187.56,406.19l-25.94,25.72a57.92,57.92,0,0,1-81.41,0,56.27,56.27,0,0,1-.48-79.57l.48-.48,95.4-94.63c19.68-19.61,56.88-48.46,84-21.61a31.72,31.72,0,0,0,44.71-45c-46.06-45.73-114.13-37.24-173.46,21.57l-95.37,94.6a119.74,119.74,0,0,0-.84,169.33l.84.84a121.63,121.63,0,0,0,170.83,0l25.91-25.73a31.7,31.7,0,0,0-44.67-45h0Zm289-367.52C427.1-10.4,357.94-13.06,312.14,32.37l-32.36,32a31.76,31.76,0,0,0,44.79,45l32.25-32c23.72-23.58,54.81-13.81,75,6.3a56.22,56.22,0,0,1,.66,79.5l-.59.6-101.78,101c-46.54,46.13-68.33,24.49-77.66,15.23a31.7,31.7,0,0,0-44.67,45c21.32,21.21,45.7,31.74,71.27,31.74,31.27,0,64.32-15.78,95.73-46.93L476.52,208.84a119.73,119.73,0,0,0,.85-169.32l-.85-.85Z"/>
</svg>
