<?xml version="1.0" encoding="utf-8"?>
<!-- Generator: Adobe Illustrator 16.0.0, SVG Export Plug-In . SVG Version: 6.00 Build 0)  -->
<!DOCTYPE svg PUBLIC "-//W3C//DTD SVG 1.1//EN" "http://www.w3.org/Graphics/SVG/1.1/DTD/svg11.dtd">
<svg version="1.1" id="Layer_1" xmlns="http://www.w3.org/2000/svg" xmlns:xlink="http://www.w3.org/1999/xlink" x="0px" y="0px"
	 width="800px" height="512px" viewBox="-426 247 800 512" enable-background="new -426 247 800 512" xml:space="preserve">
<title>menu_hamburguer</title>
<g>
	<path d="M309.875,247h-671.766C-397.297,247-426,275.625-426,310.812v384.375c0,35.25,28.469,63.812,64.109,63.812h671.766
		C345.312,759,374,730.375,374,695.188V310.812C374,275.562,345.531,247,309.875,247z M294,279L-26,557.406L-346,279H294z
		 M-383.985,718.281c-6.203-5.875-10.016-14.219-10.016-23.5V311.219c0-9.25,3.875-17.578,10.078-23.453L-136.406,503
		L-383.985,718.281z M-346,727l233.547-203.188L-26,599l86.438-75.188L294,727H-346z M342,694.781
		c0,9.25-3.875,17.594-10.062,23.469L84.406,503L332,287.719c6.188,5.875,10,14.234,10,23.5V694.781z"/>
</g>
</svg>
