<svg xmlns="http://www.w3.org/2000/svg" width="512" height="512" viewBox="0 0 512 512">
  <title>instagram</title>
  <path d="M417.9,122.25a29.62,29.62,0,1,1-29.62-29.62h0A29.62,29.62,0,0,1,417.9,122.25ZM512,256v.4l-1.7,107.4A148.22,148.22,0,0,1,363.77,510.32L256,512h-.38l-107.41-1.66A148.21,148.21,0,0,1,1.68,363.8L0,256v-.35L1.68,148.22A148.2,148.2,0,0,1,148.22,1.7L256,0h.36L363.77,1.7A148.18,148.18,0,0,1,510.29,148.22Zm-47.67,0-1.68-107A100.75,100.75,0,0,0,363,49.36L256,47.69,149,49.36A100.76,100.76,0,0,0,49.35,149L47.68,256l1.67,107A100.75,100.75,0,0,0,149,462.66l107,1.66,107-1.66A100.75,100.75,0,0,0,462.63,363Zm-76.87,0A131.46,131.46,0,1,1,256,124.53h0A131.63,131.63,0,0,1,387.45,256Zm-47.67,0A83.78,83.78,0,1,0,256,339.79h0A83.89,83.89,0,0,0,339.78,256Z"/>
</svg>
