<?xml version="1.0" encoding="utf-8"?>
<!-- Generator: Adobe Illustrator 16.0.0, SVG Export Plug-In . SVG Version: 6.00 Build 0)  -->
<!DOCTYPE svg PUBLIC "-//W3C//DTD SVG 1.1//EN" "http://www.w3.org/Graphics/SVG/1.1/DTD/svg11.dtd">
<svg version="1.1" id="Layer_1" xmlns="http://www.w3.org/2000/svg" xmlns:xlink="http://www.w3.org/1999/xlink" x="0px" y="0px"
	 width="110.271px" height="512px" viewBox="-17.88 517.818 110.271 512" enable-background="new -17.88 517.818 110.271 512"
	 xml:space="preserve">
<path d="M92.391,572.972c0,30.461-24.692,55.13-55.13,55.13c-30.461,0-55.142-24.669-55.142-55.13
	c0-30.462,24.681-55.153,55.142-55.153C67.699,517.818,92.391,542.51,92.391,572.972z"/>
<path d="M92.391,773.83c0,30.461-24.692,55.13-55.13,55.13c-30.461,0-55.142-24.669-55.142-55.13s24.681-55.152,55.142-55.152
	C67.699,718.678,92.391,743.369,92.391,773.83z"/>
<path d="M92.391,974.688c0,30.462-24.692,55.13-55.13,55.13c-30.461,0-55.142-24.668-55.142-55.13
	c0-30.461,24.681-55.153,55.142-55.153C67.699,919.535,92.391,944.228,92.391,974.688z"/>
</svg>
