<svg xmlns="http://www.w3.org/2000/svg" width="399.8" height="512" viewBox="0 0 399.8 512">
  <title>pinterest</title>
  <path d="M176.69,1.33C91.23,9.7,5.24,77.56.34,176.14c-3,60.22,13.45,105.65,70.58,119.12,25.48-43.54-7.27-53.61-12-85.51C39.73,79.43,212-7,300.27,85.08c61.09,63.75,17.64,256.61-82,235.18-95.46-20.58,49.21-172.62-26.75-203.86-61.78-25.47-96.1,73.82-67.37,123.75-18.4,85-56.65,164.76-43.08,271.85,49.27-34.76,66.69-102.3,81.15-172.85,24.33,15.23,37.22,30.9,68.47,33.75,115.24,10.5,181.4-112.7,167.21-227.4C385.32,43.83,284.77-9.25,176.69,1.33Z"/>
</svg>
