<svg xmlns="http://www.w3.org/2000/svg" width="502.81" height="512" viewBox="0 0 502.81 512">
  <title>sound_high</title>
  <path d="M411.14,438.59a27.42,27.42,0,0,1-19.39-46.81c74.85-74.85,74.85-196.62,0-271.47a27.42,27.42,0,0,1,38.76-38.79h0c96.38,96.37,96.4,252.62,0,349l0,0a27.29,27.29,0,0,1-19.37,8m-97.42-51.71A27.42,27.42,0,0,1,294.33,340a119,119,0,0,0,0-168,27.42,27.42,0,1,1,38.78-38.78c67.71,67.75,67.71,177.91,0,245.66a27.48,27.48,0,0,1-19.39,8M229.33,8.41C244-6.23,256-1.27,256,19.48v473c0,20.75-12,25.71-26.64,11L91.42,365.74H0V146.33H91.42Z"/>
</svg>
