<svg xmlns="http://www.w3.org/2000/svg" width="545.5" height="512" viewBox="0 0 545.5 512">
  <title>snapchat</title>
  <path d="M276.17,512c-1.56,0-3,0-4.11-.11a23.91,23.91,0,0,1-2.78.11c-32.42,0-54.19-15.32-73.4-28.87-13.66-9.67-26.65-18.88-41.86-21.43a133.81,133.81,0,0,0-22-1.78,152,152,0,0,0-30.54,3.44A68.28,68.28,0,0,1,90,465c-3.22,0-7.11-.77-8.77-6.32C80,454.37,79,450.14,78.08,446c-2.22-10.11-3.77-16.33-7.66-16.88C29.79,422.83,5.68,413.62.91,402.39a10.32,10.32,0,0,1-.9-3.54A6.65,6.65,0,0,1,5.47,392c32.42-5.32,61.18-22.42,85.5-50.74a191.8,191.8,0,0,0,29.2-45.43.37.37,0,0,1,.11-.22c4.66-9.54,5.66-17.87,2.78-24.54-5.22-12.33-22.65-17.88-34.09-21.55-2.88-.89-5.55-1.77-7.77-2.55C71,242.84,54.32,234.4,56.54,222.62c1.56-8.54,12.88-14.54,22.1-14.54a15.53,15.53,0,0,1,6.66,1.33c10.32,4.88,19.65,7.33,27.65,7.33,10,0,14.77-3.77,15.88-4.88-.22-5.33-.56-10.89-.89-16.22v-.11c-2.33-37.09-5.33-83.39,6.55-109.93C169.9,6.21,245,.11,267.18.11L276.73,0h1.33C300.27,0,375.55,6.09,411,85.6c11.89,26.55,8.89,72.85,6.56,110l-.11,1.78c-.33,5-.55,9.77-.78,14.44,1,1,5.44,4.44,14.43,4.77,7.55-.23,16.33-2.67,26-7.22a21.86,21.86,0,0,1,8.55-1.67,26.09,26.09,0,0,1,9.77,1.89h.11c8.22,2.88,13.55,8.78,13.66,14.88.11,5.67-4.1,14.23-24.87,22.44-2.22.78-4.88,1.66-7.78,2.55-11.55,3.67-28.87,9.22-34.09,21.55-2.89,6.67-1.89,15,2.78,24.43,0,.11.11.22.11.33,1.45,3.45,36.53,83.28,114.71,96.16a6.65,6.65,0,0,1,5.44,6.9,10.6,10.6,0,0,1-.89,3.55C539.78,413.5,515.8,422.83,475,429c-3.88.67-5.44,6.79-7.66,16.88-.89,4.22-1.89,8.33-3.11,12.66-1.22,4-3.89,6-8.1,6h-.67a73.14,73.14,0,0,1-11.46-1.4,153.77,153.77,0,0,0-30.54-3.21,136.07,136.07,0,0,0-22.09,1.78c-15.1,2.55-28.1,11.65-41.75,21.43-19.21,13.54-41,28.87-73.4,28.87Z"/>
</svg>
