<?xml version="1.0" encoding="utf-8"?>
<!-- Generator: Adobe Illustrator 16.0.0, SVG Export Plug-In . SVG Version: 6.00 Build 0)  -->
<!DOCTYPE svg PUBLIC "-//W3C//DTD SVG 1.1//EN" "http://www.w3.org/Graphics/SVG/1.1/DTD/svg11.dtd">
<svg version="1.1" id="Layer_1" xmlns="http://www.w3.org/2000/svg" xmlns:xlink="http://www.w3.org/1999/xlink" x="0px" y="0px"
	 width="512.058px" height="512.003px" viewBox="-245.609 245.485 512.058 512.003"
	 enable-background="new -245.609 245.485 512.058 512.003" xml:space="preserve">
<g id="Page-1">
	<g id="icon-111-search">
		<path id="search" d="M75.354,614.242c-33.238,23.668-73.9,37.58-117.795,37.58c-112.205,0-203.168-90.964-203.168-203.168
			c0-112.205,90.963-203.169,203.168-203.169c112.193,0,203.18,90.964,203.18,203.169c0,43.906-13.911,84.544-37.58,117.783
			l133.469,133.469c13.164,13.165,13.025,34.196,0,47.244l-0.56,0.561c-13.025,13.025-34.22,13.049-47.244,0L75.354,614.242
			L75.354,614.242z M-42.441,604.018c85.816,0,155.376-69.559,155.376-155.363c0-85.806-69.56-155.365-155.376-155.365
			c-85.805,0-155.364,69.56-155.364,155.365C-197.805,534.459-128.245,604.018-42.441,604.018L-42.441,604.018z"/>
	</g>
</g>
</svg>
