<svg xmlns="http://www.w3.org/2000/svg" width="630.07" height="511.99" viewBox="0 0 630.07 511.99">
  <title>twitter</title>
  <path d="M630.07,60.57a250.44,250.44,0,0,1-74.24,20.49,129.27,129.27,0,0,0,56.89-71.4A256.4,256.4,0,0,1,530.5,40.94a129.21,129.21,0,0,0-223.57,88.48,123.37,123.37,0,0,0,3.41,29.28C202.81,153.29,107.81,101.81,43.81,23.88A129.51,129.51,0,0,0,83.92,196.25a132.32,132.32,0,0,1-58.6-15.92v1.4c0,62.59,44.65,114.94,103.83,126.87A135.71,135.71,0,0,1,95,313.17a138.87,138.87,0,0,1-24.45-2.29c16.5,51.22,64.29,88.75,120.89,89.61A259.84,259.84,0,0,1,31,456a222.66,222.66,0,0,1-31-2,365.62,365.62,0,0,0,198.27,58c237.8,0,367.79-196.84,367.79-367.79,0-5.4-.28-11.1-.57-16.5A258.94,258.94,0,0,0,630.07,60.57Z"/>
</svg>
