<?xml version="1.0" encoding="utf-8"?>
<!-- Generator: Adobe Illustrator 19.0.0, SVG Export Plug-In . SVG Version: 6.00 Build 0)  -->
<svg version="1.1" id="Isolation_Mode" xmlns="http://www.w3.org/2000/svg" xmlns:xlink="http://www.w3.org/1999/xlink" x="0px"
	 y="0px" width="1482px" height="512px" viewBox="443.2 164.9 1482 512" style="enable-background:new 443.2 164.9 1482 512;"
	 xml:space="preserve">
<g>
	<path d="M686.6,220c3.7-2,7.6-3.7,11.5-5.1c3.9-1.4,7.7-2.9,11.5-4.6c0.7-0.3,2.5-1.3,5.4-2.8c2.9-1.5,5.9-3.2,8.9-5.1
		c3.1-1.9,5.7-3.8,7.9-5.9c2.2-2,3.1-3.6,2.8-4.6c-0.3-0.7-2.4-1.4-6.1-2c-3.7-0.7-6-1-6.6-1c-5.5-0.7-10.9-0.8-16.3-0.3
		c-5.5,0.5-10.9,1.6-16.3,3.3c-10.9,2.4-21.6,5.7-32.2,10c-10.6,4.3-20.8,9.3-30.6,15.1c-19.4,11.6-37.4,24.7-54.1,39.3
		c-7.8,7.1-15.5,15.1-23,24s-13.1,18.4-16.8,28.6c-1.7,5.1-2.3,9.8-1.8,14c0.5,4.3,1.8,8.2,3.8,11.7c2,3.6,4.7,7,7.9,10.2
		c3.2,3.2,6.7,6.2,10.5,8.9c8.2,6.5,16.5,12.7,25,18.6c8.5,6,16.2,13,23,21.2c6.8,7.8,11.4,16.8,13.8,27.1
		c2.4,10.2,2.2,20.3-0.5,30.1c-3.1,10.2-7.9,19.2-14.5,27.1c-6.6,7.8-14,14.8-22.2,20.9c-12.9,9.9-27.6,17.8-43.9,23.7
		c-16.3,6-32.7,9.1-49,9.4c-3.4,0-7.1-0.1-11-0.3c-3.9-0.2-7.7-0.8-11.2-1.8c-3.6-1-6.9-2.5-10-4.3c-3.1-1.9-5.4-4.7-7.1-8.4
		c-3.1-6.5-2.9-13.1,0.5-19.9c3.1-6.8,7.7-12.8,13.8-17.9s12.4-9.2,18.9-12.2c1.4-0.7,3.9-1.4,7.7-2.3c3.7-0.8,7.6-1.4,11.5-1.5
		c3.9-0.2,7.2,0.3,10,1.5c2.7,1.2,3.6,3.7,2.5,7.4c-1.4,4.8-3.4,8.3-6.1,10.7c-2.7,2.4-6.3,4.4-10.7,6.1c-0.7,0.3-2.9,1.5-6.6,3.3
		c-3.7,1.9-7.6,3.9-11.5,6.1c-3.9,2.2-7.3,4.4-10.2,6.6c-2.9,2.2-4,3.8-3.3,4.8c2.4,2.4,5.7,3.6,10,3.6h10.5
		c5.8-0.7,11.4-1.8,16.8-3.3c5.4-1.5,11.1-3.1,16.8-4.8c10.2-3.7,20.2-8.2,29.9-13.5s18.5-11.8,26.3-19.7c3.4-3.4,6.7-7.2,10-11.5
		c3.2-4.3,5.7-8.7,7.4-13.3s2.6-9.4,2.6-14.3s-1.4-9.8-4.1-14.5c-5.5-9.9-13-17.9-22.7-24c-9.7-6.1-18.6-12.4-26.8-18.9
		c-7.1-5.1-13.8-10.9-19.9-17.4c-6.1-6.5-10.6-13.9-13.3-22.5c-2.4-7.8-2.8-15.9-1.3-24.2s4.2-16.1,7.9-23.2
		c5.1-9.5,11.1-18.5,18.1-27.1c7-8.5,14.5-16.4,22.7-23.7c8.2-7.3,16.8-14.2,25.8-20.7s18.1-12.3,27.3-17.4
		c11.9-6.8,24.2-12.9,37-18.4c12.8-5.4,25.9-9.5,39.6-12.2c10.5-2.4,21.6-3.7,33.2-3.8c11.6-0.2,22.1,2.6,31.6,8.4
		c6.5,4.1,9.9,8.9,10.2,14.6c0.3,5.6-1,11.2-4.1,16.8c-3.1,5.6-7.2,10.8-12.5,15.6s-10,8.3-14,10.7c-4.8,2.7-9.9,4.8-15.3,6.4
		c-5.4,1.5-10.9,1.6-16.3,0.3c-2-0.3-4.1-1.2-6.1-2.6c-2-1.4-3.7-2.9-4.8-4.6c-1.2-1.7-1.7-3.5-1.5-5.4
		C682.4,223.5,683.9,221.7,686.6,220"/>
	<path d="M712.7,357.2c1.4,1,3.1,2.9,5.1,5.6c2,2.7,1.7,4.8-1,6.1h1.5c6.8,1.7,11.1,5.4,13,11.2c1.9,5.8,2.5,12.1,1.8,18.9
		c4.4,1.4,8.8,1.8,13.3,1.3c4.4-0.5,9-1.4,13.8-2.8c2.4-1,4.7-2,6.9-2.8c2.2-0.8,4.3-1.6,6.4-2.3c1-0.7,2.3-1.4,3.8-2
		c1.5-0.7,2.8-0.8,3.8-0.5c2,0.3,2.6,1.4,1.8,3.1c-0.9,1.7-2.1,3.5-3.8,5.4c-1.7,1.9-3.6,3.7-5.6,5.4s-3.2,2.7-3.6,3.1
		c-5.8,4.4-12.2,7.6-19.4,9.4c-7.1,1.9-14.1,2-20.9,0.3c-0.7,1.4-1.2,2.6-1.5,3.6s-0.7,2-1,3.1c-3.7,8.9-8.9,17.2-15.6,25
		c-6.6,7.8-14.4,14.3-23.2,19.4c-3.7,2.4-8.1,4.3-13,5.9c-4.9,1.5-9.8,2.1-14.5,1.8c-4.8-0.3-9.2-1.7-13.3-4.1
		c-4.1-2.4-7.1-6.3-9.2-11.7c-1.7-4.4-2.6-9.3-2.8-14.5c-0.2-5.3,0.3-10.5,1.3-15.8c1-5.3,2.5-10.4,4.3-15.3c1.9-4.9,3.8-9.6,5.9-14
		c4.4-8.2,10-16.1,16.6-23.7c6.6-7.7,14.4-13.5,23.2-17.6c3.7-1.7,8-2.8,12.8-3.3C704.2,354.4,708.6,355.2,712.7,357.2 M701.4,386.2
		c-1-7.1,0.9-12.4,5.6-15.8c-7.1,2.4-13.4,6.2-18.9,11.5c-5.4,5.3-10.4,10.8-14.8,16.6c-6.1,7.5-11.2,16-15.3,25.5
		c-1.7,4.4-3.4,9.6-5.1,15.6s-1.4,11.3,1,16.1c1,2,2.6,3.3,4.8,3.8c2.2,0.5,4.5,0.6,6.9,0.3c2.4-0.3,4.7-1,6.9-2s4-2,5.4-3.1
		c4.8-2.7,9-6.2,12.8-10.5c3.7-4.3,7.1-8.8,10.2-13.5c0.7-1,2.4-3.7,5.1-8.2c2.7-4.4,5.4-9.4,8.2-14.8c-3.1-2.7-5.8-5.9-8.2-9.7
		C703.7,394.2,702.1,390.3,701.4,386.2 M719.8,391.8c0.7-3.7,0.6-6.7-0.3-8.9c-0.9-2.2-2.8-3.1-5.9-2.8c-0.3,0,0.1,1.4,1.3,4.1
		s2.1,4.4,2.8,5.1L719.8,391.8z"/>
	<path d="M792.8,383.2c-0.7,1.7-2.2,4.4-4.6,8.2c-2.4,3.8-4.8,7.7-7.1,11.7c-2.4,4.1-4.2,8-5.4,11.7c-1.2,3.7-0.8,6.3,1.3,7.7
		c2.4,0.7,4.8,0.3,7.1-1c2.4-1.4,4.6-2.6,6.6-3.6c4.8-2.7,9.4-6,13.8-9.7c4.4-3.7,9-7.5,13.8-11.2l24-22.5l12.2-11.2
		c1.7-1.7,3.7-3.3,5.9-4.8c2.2-1.5,4.2-3.3,5.9-5.4c1.4-1.4,3-2.1,4.9-2.3c1.9-0.2,3.6,0.1,5.1,0.8s2.6,1.9,3.3,3.6
		c0.7,1.7,0.7,3.6,0,5.6c-0.7,2.7-1.7,5.4-3.1,8.2c-1.4,2.7-2.9,5.3-4.6,7.7l-16.3,21.9c-9.5,13.6-19,27.1-28.3,40.3
		c-9.4,13.3-19,26.5-28.8,39.8l-6.1,8.2c4.4-0.3,9.1-0.7,14-1c4.9-0.3,9.9-0.3,14.8,0.3c4.9,0.5,9.5,1.6,13.8,3.3
		c4.3,1.7,7.9,4.3,11,7.7c1.4,1.4,3,3.6,4.9,6.6c1.9,3.1,2,5.8,0.3,8.2c-1.7,1.7-3.9,2.3-6.6,1.8c-2.7-0.5-4.9-0.9-6.6-1.3
		c-6.1-1-12.6-1.5-19.4-1.5c-16,0-31.3,1.5-45.9,4.6c-14.3,20.4-28.9,40.5-43.9,60.1c-15,19.7-31,38.8-48,57.1
		c-6.8,7.8-14.3,15.5-22.5,23s-17.4,13.6-27.6,18.4c-8.8,3.7-17.3,3.7-25.3,0c-8-3.7-12.2-10.9-12.5-21.4c0-10.2,2.7-20.5,8.2-30.9
		c5.4-10.4,11.1-19.5,16.8-27.3c6.5-8.9,13.6-17.4,21.4-25.8c7.8-8.3,16-15.9,24.5-22.7c14.3-11.6,29.7-21.9,46.2-30.9
		c16.5-9,33.8-16.1,51.8-21.2c13.6-19.4,27.9-38.8,42.9-58.1l11.2-14.8c-5.8,5.1-12.3,9.9-19.6,14.3s-14.5,5.8-21.7,4.1
		c-4.8-1-8.3-3.1-10.7-6.1c-2.4-3.1-4-6.6-4.8-10.5c-0.8-3.9-1-8-0.5-12.3c0.5-4.3,1.3-8.2,2.3-12c1.4-4.1,3.5-8.7,6.4-13.8
		c2.9-5.1,6.7-8.2,11.5-9.2c2.7-0.3,6-0.1,9.7,0.8C792,377.1,793.5,379.4,792.8,383.2 M738.7,526c-16.3,6.5-31.6,14.5-45.9,24
		c-9.2,5.8-17.9,12.3-26.3,19.6c-8.3,7.3-16.1,14.9-23.2,22.7c-6.8,7.8-13.4,16.4-19.9,25.8c-6.5,9.4-11.1,19.1-13.8,29.3
		c-1,3.7-1.2,7.1-0.5,10.2s3.2,4.8,7.7,5.1c5.4,0.7,10.6-0.9,15.6-4.6c4.9-3.7,9.1-7.5,12.5-11.2c8.2-7.8,15.7-16.3,22.7-25.3
		c7-9,13.9-18,20.7-26.8l36.2-49.5L738.7,526z"/>
	<path d="M1285.3,229.2c-2.4,1.7-4.9,3-7.7,3.8c-2.7,0.9-5.4,1.8-8.2,2.8c-3.4,0.7-6.7,1.6-10,2.8c-3.2,1.2-6.6,2.5-10,3.8
		c-0.3,1-0.7,2-1,2.8c-0.3,0.9-0.9,1.8-1.5,2.8c-4.4,8.5-9.7,17.1-15.8,25.8c-6.1,8.7-14,14.9-23.5,18.6c-5.8,2.4-11.3,1.9-16.6-1.5
		c-5.3-3.4-7.7-8.5-7.4-15.3c0.7-8.2,4.3-15.4,10.7-21.7c6.5-6.3,12.9-11.5,19.4-15.6c7.8-4.8,16.7-8.8,26.5-12.3
		c0.7-2,1.4-4.2,2-6.4c0.7-2.2,1.4-4.5,2-6.9c1-3.1,1.8-7,2.3-11.7c0.5-4.8-0.6-8.3-3.3-10.7c-6.5-5.8-14-8.4-22.5-7.9
		s-16.5,1.8-24,3.8c-11.2,2.7-21.9,6.5-31.9,11.5c-10,4.9-20,10.3-29.9,16.1c-20.1,11.9-39.1,25.4-56.9,40.6
		c-17.9,15.1-34.6,31.4-50.3,48.7c-15,17.4-28.9,36.1-41.9,56c-12.9,20.1-23,41.2-30.1,63.2c-3.7,9.9-6.2,20.2-7.4,30.9
		c-1.2,10.7-0.4,21.4,2.3,31.9c1,3.4,2.1,6.7,3.3,10c1.2,3.2,3.1,6.2,5.9,8.9c3.7,3.8,8.1,6.3,13,7.7c4.9,1.4,9.8,2.2,14.5,2.6
		c10.9,0.7,21.9-0.6,32.9-3.8c11-3.2,21.3-7.4,30.9-12.5c4.4-2.4,8.6-4.9,12.5-7.7c3.9-2.7,7.6-5.9,11-9.7c1.4-1.4,2.7-2.8,4.1-4.3
		c1.4-1.5,2.6-3.1,3.6-4.9c1-1.4,1.9-2.9,2.5-4.6c0.7-1.7,1.7-3.2,3.1-4.6c2.4-2.7,4.5-3.1,6.4-1c1.9,2,2.8,4.3,2.8,6.6
		c-0.3,4.1-1.6,8.1-3.8,12c-2.2,3.9-4.5,7.2-6.9,10c-6.8,7.8-14.3,14.8-22.5,20.9c-8.2,6.1-17,11.4-26.5,15.8
		c-9.2,4.1-19.2,7.2-30.1,9.4c-10.9,2.2-21.4,2.7-31.6,1.5c-10.2-1.2-19.6-4.5-28.1-10c-8.5-5.4-15-13.8-19.4-25
		c-4.1-10.5-6.3-21.4-6.6-32.7c-0.3-11.2,0.6-22.4,2.8-33.4c2.2-11.1,5.4-21.9,9.7-32.4c4.3-10.5,8.9-20.6,14-30.1
		c10.9-20.4,23.5-39.6,37.8-57.6c14.3-18,29.8-35.2,46.4-51.5c16.7-15.7,34.5-30.3,53.6-43.9s39-25.3,59.7-35.2
		c9.9-4.8,20.2-9,31.1-12.8c10.9-3.7,21.9-6.3,33.2-7.7c4.1-0.3,8.7-0.3,13.8,0s10,1.3,14.8,2.8c4.8,1.5,9,3.8,12.8,6.9
		c3.7,3.1,6.5,7,8.2,11.7c1.4,4.8,1.7,9.4,1,14c-0.7,4.6-1.5,9.3-2.6,14l-1.5,6.6c1.4,0,3.1-0.3,5.1-1c3.7-0.7,7.2-1.3,10.5-1.8
		c3.2-0.5,6.5-0.4,9.9,0.3c2.4,0.7,4,2.1,4.9,4.3C1287.9,225.5,1287.3,227.5,1285.3,229.2"/>
	<path d="M1229.5,376.8c-11.9,2.7-23.5,6.7-34.7,12c-11.2,5.3-21.3,12.2-30.1,20.7c-9.5,9.2-17.5,18.9-24,29.1
		c-0.7,1.4-1.8,3.3-3.3,5.9s-2.8,5.2-3.8,7.9c-1,2.7-1.7,5.4-2,7.9c-0.3,2.5,0.3,4.5,2,5.9v-0.5c2,1,4.4,1.1,7.1,0.3
		c2.7-0.8,5.5-2.1,8.4-3.8s5.6-3.5,8.2-5.4s4.5-3.3,5.9-4.3c3.7-2.7,7.4-5.4,11-8.2c3.6-2.7,7.2-5.6,11-8.7l3.1-5.6
		c5.8-9.5,12.2-17.9,19.4-25.3c7.1-7.3,14.8-14.6,23-21.7c0-1.7,0.8-2.7,2.6-3.1c1.7-0.3,2.9,0.3,3.6,2c0.3,1.4,0.7,2.6,1,3.6
		c0.3,1,0.7,2.4,1,4.1c1.4,3.1,1.4,5.6,0.3,7.7c-1.2,2-2.6,4.4-4.3,7.1c-5.1,6.1-10.4,12.2-15.8,18.1c-5.4,6-11.2,11.8-17.4,17.6
		c-0.7,1-1.5,2.6-2.6,4.8c-1,2.2-2,4.6-3.1,7.1c-1,2.5-1.9,5.1-2.6,7.7c-0.7,2.6-0.9,4.9-0.5,6.9c4.1-0.7,8.2-2.5,12.2-5.6
		c4.1-3.1,7.8-5.9,11.2-8.7c4.8-3.7,9.4-7.6,13.8-11.5c4.4-3.9,8.8-7.7,13.3-11.5c4.4-3.7,8.7-7.5,12.8-11.2s8.3-7.3,12.8-10.7
		c1.4-1,3.2-2.6,5.6-4.8c2.4-2.2,4.4-3,6.1-2.3c1,0.7,1.4,1.5,1.3,2.6c-0.2,1-0.6,2.2-1.3,3.6c-0.7,1.4-1.5,2.6-2.6,3.8
		c-1,1.2-1.7,2.1-2,2.8c-6.5,8.9-13.6,17.4-21.4,25.8c-7.8,8.3-15.8,16.1-24,23.2c-3.7,3.4-7.6,6.6-11.5,9.4
		c-3.9,2.9-7.9,5.5-12,7.9c-3.7,2.4-7.2,3.8-10.5,4.3c-3.2,0.5-7.1,0.1-11.5-1.3c-4.8-1.4-7.7-3.9-8.7-7.7c-1-3.7-1.2-8-0.5-12.8
		c-2,1.7-4.1,3.2-6.1,4.6s-4.1,2.7-6.1,4.1c-4.8,3.4-9.9,6.4-15.6,8.9c-5.6,2.6-11.3,3.5-17.1,2.8c-6.5-1-10.8-3.7-13-8.2
		c-2.2-4.4-3.1-9.4-2.8-15.1c0.3-5.6,1.5-11.2,3.6-16.8c2-5.6,3.9-10.3,5.6-14c5.8-11.2,13.1-21.4,21.9-30.4
		c8.8-9,18.7-16.6,29.6-22.7c10.9-6.5,22.5-9.7,34.7-9.7c5.1,0,10.5,0.9,16.3,2.6c0.7,0.3,1.5,0.9,2.6,1.8c1,0.9,1.8,1.7,2.3,2.6
		c0.5,0.9,0.7,1.7,0.5,2.6C1232.1,375.8,1231.2,376.4,1229.5,376.8"/>
	<path d="M1253,427.8c4.8-6.5,9.7-12.8,14.8-18.9c5.1-6.1,10-12.6,14.8-19.4l6.1-8.2c-1.7-1.4-3.1-3.2-4.1-5.6
		c-2.7-6.8-2.7-13.4,0-19.9c2.7-6.5,6.3-12.1,10.7-16.8c3.7-4.1,8.6-8.5,14.5-13.3c5.9-4.8,11.8-6.8,17.6-6.1c5.8,0.7,9,3,9.7,6.9
		c0.7,3.9-0.1,8.6-2.3,14c-2.2,5.4-5.2,11-8.9,16.6c-3.7,5.6-7.3,10.6-10.7,15.1c2.7-0.7,5.2-1.3,7.4-1.8c2.2-0.5,4.2-1.1,5.9-1.8
		c5.8-1.7,12-2.5,18.6-2.3c6.6,0.2,11.7,3.7,15.1,10.5c1.7,3.7,2.3,7.5,1.8,11.2s-1.6,7.4-3.3,11c-1.7,3.6-3.7,7.1-6.1,10.5
		c-2.4,3.4-4.8,6.3-7.1,8.7c-3.7,4.4-7.4,8.7-11,12.8s-7.1,8.2-10.5,12.2l-9.2,12.3c-0.7,1.4-1.8,3.2-3.3,5.6
		c-1.5,2.4-2.5,4.4-2.8,6.1c1.4-0.7,2.7-1.1,4.1-1.3c1.4-0.2,2.4-0.6,3.1-1.3c1.7-0.7,3.5-1.5,5.4-2.6c1.9-1,3.7-2,5.4-3.1
		c4.4-2.7,8.7-5.6,12.8-8.7s8.2-6.1,12.2-9.2c6.8-5.4,13.4-10.9,19.7-16.3c6.3-5.4,12.5-11,18.6-16.8c1.4-1,3.3-2.8,5.9-5.4
		c2.5-2.6,4.7-3.1,6.4-1.8c0.7,1,0.7,2.3,0,3.8c-0.7,1.5-1.6,3.1-2.8,4.8c-1.2,1.7-2.5,3.2-3.8,4.6c-1.4,1.4-2.2,2.4-2.5,3.1
		c-11.9,14.3-24.7,27.6-38.3,39.8c-6.1,5.4-12.7,10.9-19.7,16.3c-7,5.4-14.4,9.2-22.2,11.2c-7.8,1.7-13.8,0-17.9-5.1
		s-5.1-11.2-3.1-18.4c2-8.2,5.6-15.9,10.7-23.2c5.1-7.3,10.4-14.4,15.8-21.2c2.7-3.7,5.6-7.4,8.7-11c3.1-3.6,6-7.2,8.7-11
		c2-2.7,3.4-5.3,4.1-7.7c-6.5-0.7-12.9-0.8-19.1-0.3c-6.3,0.5-12.7,0.4-19.1-0.3c-4.4,5.1-9,10-13.8,14.5
		c-4.8,4.6-9.5,9.1-14.3,13.5c-2.4,2.4-4.7,4.7-6.9,6.9c-2.2,2.2-4.7,4.3-7.4,6.4c-0.7,0.7-1.4,1.4-2,2.3c-0.7,0.9-1.4,1.5-2,1.8
		c-1.4,1-2.6,1-3.8,0C1252.1,430.9,1252,429.5,1253,427.8"/>
	<path d="M1377.5,427.8c2-2.7,5.7-7.7,11-15.1c5.3-7.3,11.2-14.3,17.9-20.9c6.6-6.6,13.1-11.5,19.4-14.5c6.3-3.1,11.5-1.7,15.6,4.1
		c0.7,0,1.1,1.5,1.3,4.3c0.2,2.9,0.3,4.5,0.3,4.9c-0.7,4.1-2.1,8-4.3,11.7c-2.2,3.7-4.3,7.5-6.4,11.2l-17.9,27.1l24.5-24
		c8.5-8.5,17.2-17,26-25.5c8.8-8.5,18.7-15.7,29.6-21.4c7.5-4.1,14.3-4.4,20.4-1s8.5,9.9,7.1,19.4c-1,5.1-2.7,10.1-5.1,15.1
		c-2.4,4.9-4.9,9.6-7.7,14c-1,2-2.2,4.2-3.6,6.4c-1.4,2.2-2.7,4.3-4.1,6.4l0.5-0.5c7.8-5.4,15.8-11.4,24-17.9
		c7.1-5.4,15.1-11.1,24-17.1c8.8-6,17.9-8.9,27.1-8.9c7.1,0,12.2,2.6,15.3,7.7c3.1,5.1,4.6,10.9,4.6,17.4c-0.3,4.8-0.9,9.4-1.5,14
		c-0.7,4.6-1.5,9.3-2.5,14c-0.7,3.8-1.8,8.5-3.3,14.3c-1.5,5.8-1.5,10.5,0.3,14.3c3.4-2,7.7-5.7,13-11s10.3-10.3,15.1-15.1
		c5.1-4.8,10.2-9.7,15.3-14.8c5.1-5.1,10.4-10,15.8-14.8l11.7-9.7c1-1,2.6-1.4,4.6-1.3c2,0.2,2.2,1.5,0.5,3.8
		c-0.3,1.7-1.5,3.5-3.3,5.4c-1.9,1.9-3.3,3.3-4.3,4.3c-2,3.1-4.2,6-6.4,8.9c-2.2,2.9-4.5,5.7-6.9,8.4c-4.8,5.4-9.6,11-14.5,16.6
		c-4.9,5.6-10.1,11-15.6,16.1c-1.7,1.7-3.7,3.7-6.1,6.1c-2.4,2.4-4.8,4.5-7.4,6.4s-5.3,3.3-8.2,4.3c-2.9,1-5.9,1-8.9,0
		c-3.4-1-5.9-2.8-7.4-5.4c-1.5-2.5-2.5-5.5-2.8-8.9c-0.3-3.4-0.4-6.9-0.3-10.5c0.2-3.6,0.4-6.7,0.8-9.4l3.6-24c0-2.4,0.3-5.6,1-9.7
		s0.2-7-1.5-8.7c-0.3,0-0.6,0.1-0.8,0.3c-0.2,0.2-0.6,0.3-1.3,0.3c-2,0.7-4.2,1.5-6.4,2.6c-2.2,1-4.2,2-5.9,3.1
		c-4.8,3.1-9.2,6.2-13.3,9.4c-4.1,3.2-8.5,6.7-13.3,10.5c-7.5,6.5-15,12.3-22.5,17.4c-3.4,2.7-7,5.4-10.7,7.9
		c-3.7,2.6-8,3.7-12.8,3.3c-4.1,0-7.5-1.4-10.2-4.1c-2.7-3.4-3.3-7.1-1.8-11c1.5-3.9,3.1-7.4,4.8-10.5c2.4-4.8,4.8-9.4,7.4-14
		s4.9-9.3,6.9-14c1-2.4,2-4.7,3.1-6.9c1-2.2,1.9-4.7,2.6-7.4c0-0.7,0.2-1.5,0.5-2.6c0-0.7,0.1-1.4,0.3-2.3c0.2-0.8,0.3-1.6,0.3-2.3
		c-4.1,1.7-8.1,4.2-12,7.4c-3.9,3.2-7.6,6.2-11,8.9c-5.1,4.4-10.1,8.9-15.1,13.3c-4.9,4.4-9.8,8.9-14.5,13.3
		c-4.8,4.8-9.6,9.4-14.5,13.8c-4.9,4.4-10,8.9-15.1,13.3c-3.4,3.4-7.1,7.1-11,11.2s-8.3,7-13,8.7c-1.7,1-4,1.5-6.9,1.5
		s-4.9-1.2-5.9-3.6c-1.4-4.1-1.6-7.7-0.8-10.7c0.9-3.1,2.5-6.6,4.8-10.7c3.1-5.4,6.3-10.7,9.7-15.8c3.4-5.1,6.8-10.4,10.2-15.8
		c1.7-2.7,3.5-5.4,5.4-8.2c1.9-2.7,3.7-5.6,5.4-8.7c0.3-0.7,0.9-1.6,1.8-2.8c0.8-1.2,1.6-2.5,2.3-3.8c-1.7,1.4-3.4,2.9-5.1,4.6
		s-2.9,2.9-3.6,3.6l-17.4,14.8c-4.4,3.8-9.2,7.5-14.3,11.2c-0.3,0.3-0.8,0.8-1.3,1.3c-0.5,0.5-1.1,0.9-1.8,1.3c-1,0.7-2,0.5-3.1-0.5
		C1377,430.3,1376.8,429.2,1377.5,427.8"/>
	<path d="M1704.7,376.2c0.7,4.1-0.4,7.7-3.3,11c-2.9,3.2-5.4,6.2-7.4,8.9c-3.4,4.1-6.8,8.3-10.2,12.8c-3.4,4.4-6.6,9-9.7,13.8
		c-3.8,4.8-7.1,9.7-10.2,14.8c-3.1,5.1-5.6,10.6-7.7,16.3c-0.3,1-0.9,2.7-1.5,5.1c-0.7,2.4-0.7,4.3,0,5.6c3.4-0.3,6.6-1.9,9.7-4.6
		c3.1-2.7,5.9-5.1,8.7-7.1l23.5-19.4l21.9-18.4c1.7-1.4,3.5-2.8,5.4-4.3c1.9-1.5,3.8-3,5.9-4.3c1.4-0.7,2.8-1.7,4.3-3.1
		c1.5-1.4,3-2.4,4.3-3.1c3.7-0.7,5.1,0.2,4.1,2.6c-1,2.4-2,4.4-3.1,6.1c-2.7,3.7-5.4,7.3-7.9,10.7c-2.5,3.4-5.4,7-8.4,10.7
		c-6.5,7.8-13.2,15.3-20.2,22.5c-7,7.1-14.5,13.8-22.7,19.9c-2.7,2-5.7,4.1-8.9,6.1c-3.2,2-6.6,3.7-10.2,4.8
		c-3.6,1.2-7.1,1.6-10.5,1.3c-3.4-0.3-6.5-2-9.2-5.1c-3.7-3.4-6.1-7.2-7.1-11.5s-1.3-8.7-0.8-13.3s1.5-9.1,3.1-13.5
		c1.5-4.4,3.3-8.5,5.4-12.3c3.7-8.2,8.2-16.2,13.3-24c5.1-7.8,10.7-15.1,16.8-21.9c2.4-2.7,5-5.9,7.9-9.4c2.9-3.6,6.2-5.7,10-6.4
		c2.7,0,5.7,0.6,8.9,1.8C1702,370.6,1704,372.9,1704.7,376.2 M1767,283.4c0.7,5.4,0,10.5-2,15.1c-2,4.6-4.8,8.9-8.2,12.8
		c-3.4,3.9-7.3,7.4-11.7,10.5c-4.4,3.1-8.9,5.6-13.3,7.7c-4.8,2.7-9.8,4.9-15.1,6.6c-5.3,1.7-10.8,2.9-16.6,3.6
		c-1,0-2.4,0.1-4.1,0.3c-1.7,0.2-3.2,0.1-4.6-0.3c-1.7-1-2.6-2.5-2.8-4.3c-0.2-1.9,0.6-3.3,2.3-4.3c8.2-4.8,16-10.1,23.5-16.1
		c7.5-5.9,14.6-12.3,21.4-19.1l21.4-20.4c1.7-1.7,3.1-2.5,4.3-2.3c1.2,0.2,2.1,0.8,2.8,1.8c0.7,1,1.3,2.4,1.8,4.1
		C1766.7,280.6,1767,282.1,1767,283.4"/>
	<path d="M1713.9,427.8c4.8-7.5,9.9-14.6,15.3-21.4s11.6-13.3,18.4-19.4c2.7-2.4,6-5,10-7.9c3.9-2.9,8-5.2,12.2-6.9
		c4.3-1.7,8.5-2.6,12.8-2.8s8.4,1.1,12.5,3.8c3.7,3.1,5.8,6.9,6.1,11.5c0.3,4.6-0.2,9.1-1.5,13.5c-1.7,5.1-3.7,10-6.1,14.6
		c-2.4,4.6-4.9,9.1-7.7,13.5c-1.4,2.7-2.6,5.3-3.6,7.7c-1,2.4-2.2,4.8-3.6,7.1c-0.7,1.7-1.5,3.4-2.3,5.1c-0.9,1.7-1.6,3.4-2.3,5.1
		c0.7-0.7,1.2-1,1.5-1l11.7-10.7l25-26.5c6.8-7.8,14.3-15.4,22.5-22.7s17.2-12.7,27.1-16.1c2.7-1,5.7-1.6,8.9-1.8
		c3.2-0.2,6.4,0.2,9.4,1c3.1,0.9,5.6,2.3,7.7,4.3c2,2,3.4,4.8,4.1,8.2c0.7,4.8,0.1,9.2-1.8,13.3s-3.8,8-5.9,11.7
		c-3.1,5.1-6,10.2-8.9,15.3c-2.9,5.1-5.9,10-8.9,14.8c-2,4.1-4.5,8.9-7.4,14.3s-5.2,11-6.9,16.6c-1.7,5.6-2.6,11.2-2.6,16.6
		c0,5.4,1.7,10.4,5.1,14.8c3.4,4.1,7.5,5.6,12.3,4.6s9.4-3.3,13.8-6.9c4.4-3.6,8.5-7.7,12.2-12.3c3.7-4.6,6.5-8.2,8.2-11
		c1.4-1.7,2.6-3.6,3.6-5.6s2-3.9,3.1-5.6c0.7-1.4,1.3-2.9,1.8-4.6c0.5-1.7,1.3-2.9,2.3-3.6c3.4-2.4,6-2,7.9,1.3
		c1.9,3.2,3.1,6,3.8,8.4c2.7,9.5,1.7,18.9-3.1,28.1c-4.8,9.2-11.1,16.5-18.9,22c-6.8,4.8-15,8.3-24.5,10.5s-18.4,1.3-26.5-2.8
		c-5.1-2.7-9.4-6.6-13-11.7c-3.6-5.1-5.9-10.5-6.9-16.3c-2.4-9.9-2-19.8,1-29.9c3.1-10,6.6-19.5,10.7-28.3c4.1-8.5,8.7-17.2,13.8-26
		c1.4-2.4,2.8-4.8,4.3-7.4c1.5-2.5,3-5.2,4.3-7.9c-5.1,2.4-9.9,5.6-14.3,9.7c-4.8,4.4-9.4,8.9-14,13.5s-9.3,9.3-14,14
		c-4.4,4.4-8.8,8.9-13,13.5c-4.3,4.6-8.8,8.8-13.5,12.5c-3.8,3.4-7.8,6.5-12.2,9.2c-4.4,2.7-9.4,4.1-14.8,4.1
		c-6.8,0-11.3-2.8-13.5-8.4s-2.1-11.3,0.3-17.1c2-5.8,4.3-11.3,6.6-16.6c2.4-5.3,4.9-10.8,7.7-16.6c0.3-0.7,1-2,2-4.1
		c1-2,2.1-4.3,3.3-6.9c1.2-2.5,2.3-5.2,3.3-7.9c1-2.7,1.7-5.1,2-7.1c-2.7-0.7-6,0.3-10,3.1c-3.9,2.7-6.7,4.8-8.4,6.1
		c-3.7,2.7-7.3,5.3-10.7,7.7c-3.4,2.4-7,4.9-10.7,7.6c-2.7,2.4-5.5,4.7-8.4,6.9s-6,4.3-9.4,6.4c-0.7,0.7-1.4,1.4-2.3,2.3
		c-0.8,0.9-1.8,1.5-2.8,1.8c-0.7,0-1.7-0.3-3.1-0.8C1713.5,430.6,1713.2,429.5,1713.9,427.8"/>
</g>
</svg>
