<svg xmlns="http://www.w3.org/2000/svg" width="512" height="512" viewBox="0 0 512 512">
  <title>whatsapp</title>
  <path d="M437.42,74.4A253.88,253.88,0,0,0,257.11,0C116.55,0,2.22,113.8,2.15,253.7a252.18,252.18,0,0,0,34,126.83L0,512l135.16-35.29A255.76,255.76,0,0,0,257,507.59h.11C397.57,507.59,512,393.76,512,253.89A251.53,251.53,0,0,0,437.42,74.4M257.11,464.76H257a212.69,212.69,0,0,1-107.86-29.42l-7.73-4.54-80.2,20.93,21.42-77.81-5.06-8A209.37,209.37,0,0,1,45.21,253.73c0-116.28,95.09-210.87,212-210.87C373.91,42.6,468.73,137,469,253.69v.2c0,116.24-95.09,210.87-211.86,210.87m116.22-158c-6.4-3.19-37.73-18.51-43.53-20.59s-10.1-3.19-14.33,3.17S299,310,295.29,314.21s-7.43,4.77-13.8,1.59-26.92-9.84-51.22-31.47c-18.93-16.79-31.72-37.57-35.48-43.88s-.34-9.81,2.83-13c2.88-2.85,6.37-7.39,9.56-11.09s4.23-6.36,6.37-10.58,1.06-7.95-.54-11.11S198.7,160.29,193.4,147.6c-5.2-12.37-10.43-10.72-14.34-10.92-3.72-.14-8-.19-12.23-.19a23.5,23.5,0,0,0-17,8c-5.83,6.31-22.26,21.65-22.26,52.86s22.83,61.34,26,65.58,44.94,68.28,108.82,95.72A382.15,382.15,0,0,0,298.71,372c15.25,4.81,29.13,4.13,40.09,2.5,12.23-1.79,37.71-15.34,43-30.2s5.31-27.43,3.73-30.11-5.83-4.21-12.21-7.4"/>
</svg>
