<?xml version="1.0" encoding="utf-8"?>
<!-- Generator: Adobe Illustrator 16.0.0, SVG Export Plug-In . SVG Version: 6.00 Build 0)  -->
<!DOCTYPE svg PUBLIC "-//W3C//DTD SVG 1.1//EN" "http://www.w3.org/Graphics/SVG/1.1/DTD/svg11.dtd">
<svg version="1.1" id="Layer_1" xmlns="http://www.w3.org/2000/svg" xmlns:xlink="http://www.w3.org/1999/xlink" x="0px" y="0px"
	 width="512px" height="510.868px" viewBox="0 0 512 510.868" enable-background="new 0 0 512 510.868" xml:space="preserve">
<g>
	<path d="M492.675,157.296c-12.921-31.095-31.606-58.872-55.537-82.561C413.312,50.9,385.48,32.297,354.384,19.413
		C323.292,6.531,290.464,0,256.812,0l-0.752,0.001C114.928,0.001,0.071,114.274,0,254.734
		c-0.065,44.667,11.738,88.692,34.131,127.326l1.743,3.007l-0.921,3.352L1.284,510.868L127.51,477.91l3.167-0.827l2.879,1.56
		c37.449,20.289,79.759,31.014,122.354,31.014h0.126c141.138,0,255.963-114.271,255.963-254.729
		C512.097,221.231,505.595,188.391,492.675,157.296z M484.007,254.927c0,125.12-102.253,226.913-227.939,226.913h-0.145
		c-40.778-0.015-80.9-10.958-116.033-31.648l-5.039-2.959l-79.819,20.831l-13.905,3.629l3.814-13.855l21.233-77.135l-3.286-5.195
		c-22.865-36.194-34.909-77.952-34.833-120.761c0-125.105,102.318-226.898,228.084-226.898l0.498,0c0.004,0,0.008,0,0.013,0
		c30.632,0,60.356,5.993,88.353,17.814c27.043,11.418,51.339,27.766,72.212,48.589c20.874,20.825,37.281,45.083,48.766,72.102
		c11.89,27.977,17.955,57.701,18.026,88.348V254.927z"/>
	<path d="M378.571,315.383c-1.203-0.576-2.507-1.201-3.91-1.903l-5.974-2.986l0.011-0.008
		c-12.193-5.977-34.115-16.555-38.671-18.188c-2.038-0.731-4.158-1.445-5.697-1.445c-0.778,0-2.228,0-4.305,3.124
		c-4.651,6.992-17.98,22.469-21.295,26.229c-3.062,3.475-6.412,5.164-10.244,5.164c-2.679,0-5.547-0.81-9.026-2.548
		c-0.983-0.49-2.403-1.103-4.2-1.877c-9.174-3.954-28.263-12.184-49.808-31.36c-18.269-16.204-31.392-36.069-37.588-46.468
		c-5.568-9.343,0.367-15.314,3.555-18.523c1.868-1.848,4.11-4.562,6.279-7.187c1.156-1.397,2.312-2.796,3.432-4.096
		c2.411-2.795,3.438-4.875,4.994-8.024c0.329-0.667,0.675-1.367,1.053-2.112c1.199-2.364,1.036-4.615-0.561-7.77
		c-1.097-2.168-5.914-13.825-13.136-31.361c-2.819-6.844-5.495-13.341-7.321-17.714c-3.679-8.753-6.461-8.753-9.152-8.753
		l-0.826,0.002c-0.436,0-0.86-0.005-1.273-0.027c-3.348-0.125-7.54-0.191-12.406-0.191c-5.58,0.175-10.887,2.681-14.568,6.881
		l-0.073,0.081c-0.384,0.415-0.81,0.866-1.272,1.356c-6.721,7.117-20.705,21.926-20.705,50.632c0,27.61,18.185,54.89,26.002,65.336
		l0.127,0.17c0.223,0.298,0.618,0.861,1.18,1.665c18.305,26.168,56.929,73.469,109.955,96.247
		c12.116,5.163,24.653,9.771,37.25,13.69c7.82,2.467,15.768,3.664,24.308,3.664c4.875,0,9.917-0.397,15.413-1.214
		c11.238-1.646,36.39-14.852,41.283-28.6c5.05-14.186,5.022-25.522,4.158-27.788C384.821,318.378,381.784,316.922,378.571,315.383z"
		/>
</g>
</svg>
